<mxfile host="app.diagrams.net" modified="2023-04-06T15:22:51.438Z" agent="Mozilla/5.0 (Macintosh; Intel Mac OS X 10_15_7) AppleWebKit/605.1.15 (KHTML, like Gecko) Version/15.6 Safari/605.1.15" etag="JLexMngyIqw85PfU8-t5" version="21.1.4" type="github">
  <diagram name="Page-1" id="Qj5v4JCtX8cRMkB14Dfi">
    <mxGraphModel dx="934" dy="644" grid="1" gridSize="10" guides="1" tooltips="1" connect="1" arrows="1" fold="1" page="1" pageScale="1" pageWidth="827" pageHeight="1169" math="0" shadow="0">
      <root>
        <mxCell id="0" />
        <mxCell id="1" parent="0" />
        <mxCell id="SHC6fzrVvuHxgRFKBfnp-2" value="Bob" style="shape=umlActor;verticalLabelPosition=bottom;verticalAlign=top;html=1;outlineConnect=0;fillColor=#FF0000;" vertex="1" parent="1">
          <mxGeometry x="654" y="258" width="30" height="60" as="geometry" />
        </mxCell>
        <mxCell id="SHC6fzrVvuHxgRFKBfnp-6" value="" style="sketch=0;aspect=fixed;pointerEvents=1;shadow=0;dashed=0;html=1;strokeColor=none;labelPosition=center;verticalLabelPosition=bottom;verticalAlign=top;align=center;fillColor=#00188D;shape=mxgraph.mscae.enterprise.document" vertex="1" parent="1">
          <mxGeometry x="190" y="225" width="40" height="50" as="geometry" />
        </mxCell>
        <mxCell id="SHC6fzrVvuHxgRFKBfnp-26" style="edgeStyle=orthogonalEdgeStyle;rounded=0;orthogonalLoop=1;jettySize=auto;html=1;entryX=0.5;entryY=1;entryDx=0;entryDy=0;" edge="1" parent="1" source="SHC6fzrVvuHxgRFKBfnp-7" target="SHC6fzrVvuHxgRFKBfnp-20">
          <mxGeometry relative="1" as="geometry" />
        </mxCell>
        <mxCell id="SHC6fzrVvuHxgRFKBfnp-7" value="" style="shape=image;html=1;verticalAlign=top;verticalLabelPosition=bottom;labelBackgroundColor=#ffffff;imageAspect=0;aspect=fixed;image=https://cdn1.iconfinder.com/data/icons/bootstrap-vol-3/16/file-zip-128.png" vertex="1" parent="1">
          <mxGeometry x="380" y="360" width="50" height="50" as="geometry" />
        </mxCell>
        <mxCell id="SHC6fzrVvuHxgRFKBfnp-15" style="edgeStyle=orthogonalEdgeStyle;rounded=0;orthogonalLoop=1;jettySize=auto;html=1;entryX=0.5;entryY=0;entryDx=0;entryDy=0;" edge="1" parent="1" source="SHC6fzrVvuHxgRFKBfnp-8" target="SHC6fzrVvuHxgRFKBfnp-13">
          <mxGeometry relative="1" as="geometry" />
        </mxCell>
        <mxCell id="SHC6fzrVvuHxgRFKBfnp-8" value="" style="image;aspect=fixed;perimeter=ellipsePerimeter;html=1;align=center;shadow=0;dashed=0;spacingTop=3;image=img/lib/active_directory/key.svg;" vertex="1" parent="1">
          <mxGeometry x="305" y="170" width="50" height="37" as="geometry" />
        </mxCell>
        <mxCell id="SHC6fzrVvuHxgRFKBfnp-33" style="edgeStyle=orthogonalEdgeStyle;rounded=0;orthogonalLoop=1;jettySize=auto;html=1;entryX=0.017;entryY=0.585;entryDx=0;entryDy=0;entryPerimeter=0;" edge="1" parent="1" source="SHC6fzrVvuHxgRFKBfnp-11" target="SHC6fzrVvuHxgRFKBfnp-13">
          <mxGeometry relative="1" as="geometry" />
        </mxCell>
        <mxCell id="SHC6fzrVvuHxgRFKBfnp-11" value="Alice&lt;br&gt;" style="shape=umlActor;verticalLabelPosition=bottom;verticalAlign=top;html=1;outlineConnect=0;fillColor=#00FF00;" vertex="1" parent="1">
          <mxGeometry x="140" y="254" width="30" height="60" as="geometry" />
        </mxCell>
        <mxCell id="SHC6fzrVvuHxgRFKBfnp-19" style="edgeStyle=orthogonalEdgeStyle;rounded=0;orthogonalLoop=1;jettySize=auto;html=1;entryX=0.5;entryY=0;entryDx=0;entryDy=0;" edge="1" parent="1" source="SHC6fzrVvuHxgRFKBfnp-13" target="SHC6fzrVvuHxgRFKBfnp-7">
          <mxGeometry relative="1" as="geometry" />
        </mxCell>
        <mxCell id="SHC6fzrVvuHxgRFKBfnp-13" value="Encryption&lt;br&gt;" style="whiteSpace=wrap;html=1;aspect=fixed;fillColor=#99CCFF;" vertex="1" parent="1">
          <mxGeometry x="290" y="238" width="80" height="80" as="geometry" />
        </mxCell>
        <mxCell id="SHC6fzrVvuHxgRFKBfnp-14" value="encryption key&lt;br&gt;" style="text;html=1;strokeColor=none;fillColor=none;align=center;verticalAlign=middle;whiteSpace=wrap;rounded=0;" vertex="1" parent="1">
          <mxGeometry x="340" y="170" width="60" height="30" as="geometry" />
        </mxCell>
        <mxCell id="SHC6fzrVvuHxgRFKBfnp-17" value="Plaintext" style="text;html=1;strokeColor=none;fillColor=none;align=center;verticalAlign=middle;whiteSpace=wrap;rounded=0;" vertex="1" parent="1">
          <mxGeometry x="180" y="195" width="60" height="30" as="geometry" />
        </mxCell>
        <mxCell id="SHC6fzrVvuHxgRFKBfnp-18" value="Ciphertext" style="text;html=1;strokeColor=none;fillColor=none;align=center;verticalAlign=middle;whiteSpace=wrap;rounded=0;" vertex="1" parent="1">
          <mxGeometry x="320" y="380" width="60" height="30" as="geometry" />
        </mxCell>
        <mxCell id="SHC6fzrVvuHxgRFKBfnp-31" style="edgeStyle=orthogonalEdgeStyle;rounded=0;orthogonalLoop=1;jettySize=auto;html=1;exitX=1;exitY=0.5;exitDx=0;exitDy=0;" edge="1" parent="1" source="SHC6fzrVvuHxgRFKBfnp-20">
          <mxGeometry relative="1" as="geometry">
            <mxPoint x="650" y="281" as="targetPoint" />
          </mxGeometry>
        </mxCell>
        <mxCell id="SHC6fzrVvuHxgRFKBfnp-20" value="Decryption" style="whiteSpace=wrap;html=1;aspect=fixed;fillColor=#e392fe;" vertex="1" parent="1">
          <mxGeometry x="470" y="240" width="80" height="80" as="geometry" />
        </mxCell>
        <mxCell id="SHC6fzrVvuHxgRFKBfnp-22" value="decryption key" style="text;html=1;strokeColor=none;fillColor=none;align=center;verticalAlign=middle;whiteSpace=wrap;rounded=0;" vertex="1" parent="1">
          <mxGeometry x="505" y="170" width="60" height="30" as="geometry" />
        </mxCell>
        <mxCell id="SHC6fzrVvuHxgRFKBfnp-25" style="edgeStyle=orthogonalEdgeStyle;rounded=0;orthogonalLoop=1;jettySize=auto;html=1;entryX=0.25;entryY=0;entryDx=0;entryDy=0;" edge="1" parent="1" source="SHC6fzrVvuHxgRFKBfnp-23" target="SHC6fzrVvuHxgRFKBfnp-20">
          <mxGeometry relative="1" as="geometry" />
        </mxCell>
        <mxCell id="SHC6fzrVvuHxgRFKBfnp-23" value="" style="image;sketch=0;aspect=fixed;html=1;points=[];align=center;fontSize=12;image=img/lib/mscae/Key.svg;" vertex="1" parent="1">
          <mxGeometry x="474" y="157" width="31" height="50" as="geometry" />
        </mxCell>
        <mxCell id="SHC6fzrVvuHxgRFKBfnp-27" value="" style="sketch=0;aspect=fixed;pointerEvents=1;shadow=0;dashed=0;html=1;strokeColor=none;labelPosition=center;verticalLabelPosition=bottom;verticalAlign=top;align=center;fillColor=#00188D;shape=mxgraph.mscae.enterprise.document" vertex="1" parent="1">
          <mxGeometry x="580" y="227" width="40" height="50" as="geometry" />
        </mxCell>
        <mxCell id="SHC6fzrVvuHxgRFKBfnp-28" value="Plaintext" style="text;html=1;strokeColor=none;fillColor=none;align=center;verticalAlign=middle;whiteSpace=wrap;rounded=0;" vertex="1" parent="1">
          <mxGeometry x="570" y="197" width="60" height="30" as="geometry" />
        </mxCell>
      </root>
    </mxGraphModel>
  </diagram>
</mxfile>
